HIERARCHY
ROOT hip
{
	OFFSET 0.000000 0.000000 0.000000
	CHANNELS 6 Xposition Yposition Zposition Xrotation Zrotation Yrotation 
	JOINT abdomen
	{
		OFFSET 0.000000 3.422050 0.000000
		CHANNELS 3 Xrotation Zrotation Yrotation 
		JOINT chest
		{
			OFFSET 0.000000 8.486693 -0.684411
			CHANNELS 3 Xrotation Zrotation Yrotation 
			JOINT neck
			{
				OFFSET 0.000000 10.266162 -0.273764
				CHANNELS 3 Xrotation Zrotation Yrotation 
				JOINT head
				{
					OFFSET 0.000000 3.148285 0.000000
					CHANNELS 3 Xrotation Zrotation Yrotation 
					End Site
					{
						OFFSET 0.000000 3.148289 0.000000
					}
				}
			}
			JOINT lCollar
			{
				OFFSET 3.422053 6.707223 -0.821293
				CHANNELS 3 Yrotation Zrotation Xrotation 
				JOINT lShldr
				{
					OFFSET 3.285171 0.000000 0.000000
					CHANNELS 3 Zrotation Yrotation Xrotation 
					JOINT lForeArm
					{
						OFFSET 10.129278 0.000000 0.000000
						CHANNELS 3 Yrotation Zrotation Xrotation 
						JOINT lHand
						{
							OFFSET 8.486692 0.000000 0.000000
							CHANNELS 3 Zrotation Yrotation Xrotation 
							End Site
							{
								OFFSET 4.106464 0.000000 0.000000
							}
						}
					}
				}
			}
			JOINT rCollar
			{
				OFFSET -3.558935 6.707223 -0.821293
				CHANNELS 3 Yrotation Zrotation Xrotation 
				JOINT rShldr
				{
					OFFSET -3.148289 0.000000 0.000000
					CHANNELS 3 Zrotation Yrotation Xrotation 
					JOINT rForeArm
					{
						OFFSET -10.266159 0.000000 0.000000
						CHANNELS 3 Yrotation Zrotation Xrotation 
						JOINT rHand
						{
							OFFSET -8.349810 0.000000 0.000000
							CHANNELS 3 Zrotation Yrotation Xrotation 
							End Site
							{
								OFFSET -4.106464 0.000000 0.000000
							}
						}
					}
				}
			}
		}
	}
	JOINT lThigh
	{
		OFFSET 5.338403 -1.642589 1.368821
		CHANNELS 3 Xrotation Zrotation Yrotation 
		JOINT lShin
		{
			OFFSET -2.053232 -20.121670 0.000000
			CHANNELS 3 Xrotation Zrotation Yrotation 
			JOINT lFoot
			{
				OFFSET 0.000000 -19.300380 -1.231939
				CHANNELS 3 Xrotation Yrotation Zrotation 
				End Site
				{
					OFFSET 0.000000 -2.463878 4.653993
				}
			}
		}
	}
	JOINT rThigh
	{
		OFFSET -5.338403 -1.642589 1.368821
		CHANNELS 3 Xrotation Zrotation Yrotation 
		JOINT rShin
		{
			OFFSET 2.053232 -20.121670 0.000000
			CHANNELS 3 Xrotation Zrotation Yrotation 
			JOINT rFoot
			{
				OFFSET 0.000000 -19.300380 -1.231939
				CHANNELS 3 Xrotation Yrotation Zrotation 
				End Site
				{
					OFFSET 0.000000 -2.463878 4.653993
				}
			}
		}
	}
}
MOTION
Frames: 17
Frame Time: 0.033264
-0.309380 36.939201 0.968249 -7.651385 0.000000 0.000000 11.340684 -0.929372 -0.342995 1.275085 -2.187668 -1.083253 32.228989 0.000000 0.000000 -23.532394 0.000000 0.000000 -5.719841 11.288269 -6.115371 -53.313522 -14.202472 -1.125801 -83.554337 -34.273758 -13.348992 -14.482887 16.807915 -14.228589 5.098933 -12.038301 -6.333367 52.834381 14.709431 -1.324182 81.028748 33.710564 -12.020836 16.997379 -14.271258 -13.959312 -146.114807 65.533180 5.184930 151.937820 31.995871 53.669556 -11.746481 -47.975090 -3.067755 -146.137283 -65.553246 -5.184968 151.929489 -32.034363 -53.694504 -11.751309 47.969238 3.075132 
-0.309380 36.895046 0.951278 -7.300964 0.000000 0.000000 11.666106 -0.929356 -0.342999 -0.099973 -2.187740 -1.083226 32.611416 0.000000 0.000000 -23.413918 0.000000 0.000000 -5.512251 11.290994 -5.700521 -53.508148 -14.121763 -1.043886 -83.855675 -34.384342 -13.518218 -14.617091 17.035292 -14.215461 4.865176 -12.057541 -5.941374 53.045937 14.653143 -1.236660 81.283615 33.824867 -12.162090 17.186758 -14.477264 -13.928635 -146.206253 65.061554 5.407044 151.937820 31.995871 53.669556 -11.712963 -47.674622 -3.359899 -146.228333 -65.082184 -5.406753 151.929489 -32.034363 -53.694504 -11.718039 47.669621 3.367552 
-0.309380 36.850891 0.934307 -6.950553 0.000000 0.000000 11.991518 -0.929340 -0.343003 -1.474234 -2.187810 -1.083197 32.993359 0.000000 0.000000 -23.295429 0.000000 0.000000 -5.304700 11.295189 -5.285710 -53.702564 -14.040781 -0.962286 -84.157822 -34.494209 -13.688375 -14.751390 17.262680 -14.202868 4.631558 -12.078341 -5.549465 53.257336 14.596543 -1.149375 81.539192 33.938652 -12.304143 17.376196 -14.683360 -13.898635 -146.300385 64.590164 5.627038 151.937820 31.995871 53.669556 -11.677380 -47.374290 -3.650617 -146.322037 -64.611305 -5.626415 151.929489 -32.034363 -53.694504 -11.682705 47.370144 3.658546 
-0.309380 36.806736 0.917335 -6.600163 0.000000 0.000000 12.316918 -0.929324 -0.343007 -2.847313 -2.187880 -1.083167 33.374821 0.000000 0.000000 -23.176933 0.000000 0.000000 -5.097205 11.300858 -4.870956 -53.896801 -13.959537 -0.880999 -84.460754 -34.603325 -13.859450 -14.885808 17.490099 -14.190822 4.398099 -12.100698 -5.157658 53.468597 14.539636 -1.062333 81.795425 34.051899 -12.446989 17.565695 -14.889546 -13.869311 -146.397049 64.118958 5.845022 151.937820 31.995871 53.669556 -11.639765 -47.074127 -3.939943 -146.418259 -64.140656 -5.844084 151.929489 -32.034363 -53.694504 -11.645340 47.070812 3.948150 
-0.309380 36.762581 0.900364 -6.249801 0.000000 0.000000 12.642294 -0.929308 -0.343011 -4.218813 -2.187950 -1.083135 33.755798 0.000000 0.000000 -23.058426 0.000000 0.000000 -4.889785 11.308001 -4.456282 -54.090858 -13.878029 -0.800027 -84.764435 -34.711678 -14.031433 -15.020337 17.717533 -14.179321 4.164816 -12.124615 -4.765972 53.679710 14.482419 -0.975531 82.052338 34.164612 -12.590638 17.755253 -15.095811 -13.840665 -146.496109 63.648022 6.061138 151.937820 31.995871 53.669556 -11.600146 -46.774105 -4.227902 -146.516891 -63.670223 -6.059871 151.929489 -32.034363 -53.694504 -11.605982 46.771656 4.236391 
-0.309380 36.718426 0.883393 -5.899471 0.000000 0.000000 12.967645 -0.929292 -0.343015 -5.588342 -2.188019 -1.083101 34.136272 0.000000 0.000000 -22.939911 0.000000 0.000000 -4.682456 11.316609 -4.041703 -54.284710 -13.796257 -0.719371 -85.068909 -34.819279 -14.204336 -15.154981 17.944979 -14.168366 3.931728 -12.150082 -4.374427 53.890659 14.424893 -0.888974 82.309906 34.276783 -12.735075 17.944885 -15.302156 -13.812705 -146.597488 63.177391 6.275497 151.937820 31.995871 53.669556 -11.558568 -46.474281 -4.514533 -146.617828 -63.200115 -6.273890 151.929489 -32.034363 -53.694504 -11.564656 46.472664 4.523298 
-0.309380 36.674271 0.866421 -5.549180 0.000000 0.000000 13.292964 -0.929275 -0.343018 -6.955521 -2.188086 -1.083066 34.516247 0.000000 0.000000 -22.821398 0.000000 0.000000 -4.475237 11.326690 -3.627238 -54.478363 -13.714222 -0.639032 -85.374168 -34.926128 -14.378153 -15.289747 18.172436 -14.157964 3.698853 -12.177101 -3.983040 54.101463 14.367064 -0.802662 82.568169 34.388420 -12.880317 18.134581 -15.508574 -13.785425 -146.701050 62.707039 6.488179 151.937820 31.995871 53.669556 -11.515055 -46.174629 -4.799861 -146.720963 -62.730309 -6.486241 151.929489 -32.034363 -53.694504 -11.521406 46.173889 4.808908 
-0.309380 36.630116 0.849450 -5.198934 0.000000 0.000000 13.618246 -0.929259 -0.343022 -8.319963 -2.188152 -1.083029 34.895699 0.000000 0.000000 -22.702866 0.000000 0.000000 -4.268144 11.338234 -3.212909 -54.671829 -13.631930 -0.559010 -85.680183 -35.032188 -14.552866 -15.424635 18.399893 -14.148108 3.466210 -12.205668 -3.591831 54.312107 14.308928 -0.716596 82.827095 34.499493 -13.026342 18.324354 -15.715061 -13.758832 -146.806686 62.237011 6.699288 151.937820 31.995871 53.669556 -11.469649 -45.875233 -5.083918 -146.826187 -62.260807 -6.697020 151.929489 -32.034363 -53.694504 -11.476261 45.875320 5.093243 
-0.309380 36.585960 0.832479 -4.848740 0.000000 0.000000 13.943485 -0.929243 -0.343025 -9.681295 -2.188218 -1.082991 35.274647 0.000000 0.000000 -22.584335 0.000000 0.000000 -4.061195 11.351243 -2.798731 -54.865089 -13.549376 -0.479305 -85.986954 -35.137478 -14.728482 -15.559654 18.627359 -14.138811 3.233815 -12.235778 -3.200818 54.522606 14.250493 -0.630779 83.086685 34.610012 -13.173165 18.514196 -15.921605 -13.732921 -146.914322 61.767376 6.908932 151.937820 31.995871 53.669556 -11.422371 -45.576031 -5.366727 -146.933411 -61.791676 -6.906311 151.929489 -32.034363 -53.694504 -11.429248 45.576977 5.376333 
-0.309380 36.541805 0.815507 -4.498606 0.000000 0.000000 14.268680 -0.929227 -0.343029 -11.039140 -2.188282 -1.082951 35.653057 0.000000 0.000000 -22.465796 0.000000 0.000000 -3.854410 11.365716 -2.384727 -55.058163 -13.466572 -0.399922 -86.294487 -35.241985 -14.904998 -15.694798 18.854820 -14.130063 3.001688 -12.267424 -2.810020 54.732937 14.191754 -0.545211 83.346962 34.719990 -13.320781 18.704123 -16.128214 -13.707705 -147.023895 61.298107 7.117165 151.937820 31.995871 53.669556 -11.373264 -45.277092 -5.648321 -147.042542 -61.322956 -7.114209 151.929489 -32.034363 -53.694500 -11.380404 45.278881 5.658205 
-0.309380 36.497650 0.798536 -4.148538 0.000000 0.000000 14.593822 -0.929210 -0.343032 -12.393131 -2.188345 -1.082910 36.030933 0.000000 0.000000 -22.347250 0.000000 0.000000 -3.647802 11.381644 -1.970912 -55.251034 -13.383510 -0.320857 -86.602776 -35.345703 -15.082397 -15.830075 19.082273 -14.121873 2.769845 -12.300603 -2.419454 54.943123 14.132720 -0.459894 83.607880 34.829384 -13.469185 18.894121 -16.334873 -13.683172 -147.135300 60.829285 7.324080 151.937820 31.995871 53.669556 -11.322350 -44.978409 -5.928722 -147.153519 -60.854614 -7.320775 151.929489 -32.034363 -53.694504 -11.329756 44.981045 5.938886 
-0.309380 36.453495 0.781565 -3.798540 0.000000 0.000000 14.918900 -0.929194 -0.343035 -13.742917 -2.188407 -1.082868 36.408268 0.000000 0.000000 -22.228699 0.000000 0.000000 -3.441391 11.399028 -1.557306 -55.443699 -13.300196 -0.242113 -86.911812 -35.448627 -15.260694 -15.965490 19.309721 -14.114243 2.538304 -12.335315 -2.029140 55.153126 14.073380 -0.374830 83.869476 34.938225 -13.618376 19.084215 -16.541582 -13.659339 -147.248459 60.360897 7.529754 151.937820 31.995871 53.669556 -11.269660 -44.680000 -6.207961 -147.266235 -60.386742 -7.526106 151.929489 -32.034367 -53.694508 -11.277335 44.683479 6.218404 
-0.309380 36.409340 0.764593 -3.448622 0.000000 0.000000 15.243925 -0.929178 -0.343038 -15.088131 -2.188468 -1.082824 36.785057 0.000000 0.000000 -22.110136 0.000000 0.000000 -3.235194 11.417860 -1.143928 -55.636189 -13.216638 -0.163690 -87.221619 -35.550762 -15.439877 -16.101048 19.537155 -14.107175 2.307084 -12.371546 -1.639095 55.362965 14.013745 -0.290021 84.131744 35.046490 -13.768360 19.274391 -16.748335 -13.636196 -147.363281 59.892975 7.734244 151.937820 31.995871 53.669556 -11.215223 -44.381878 -6.486058 -147.380630 -59.919331 -7.730244 151.929489 -32.034363 -53.694504 -11.223164 44.386189 6.496777 
-0.309380 36.365185 0.747622 -3.098788 0.000000 0.000000 15.568877 -0.929161 -0.343041 -16.428440 -2.188528 -1.082779 37.161289 0.000000 0.000000 -21.991575 0.000000 0.000000 -3.029228 11.438145 -0.730797 -55.828453 -13.132823 -0.085590 -87.532143 -35.652077 -15.619929 -16.236748 19.764572 -14.100668 2.076200 -12.409295 -1.249337 55.572659 13.953819 -0.205465 84.394669 35.154171 -13.919122 19.464655 -16.955124 -13.613748 -147.479767 59.425571 7.937614 151.937820 31.995871 53.669556 -11.159073 -44.084061 -6.763041 -147.496674 -59.452419 -7.933268 151.929489 -32.034363 -53.694504 -11.167285 44.089222 6.774040 
-0.309380 36.321030 0.730651 -2.749047 0.000000 0.000000 15.893753 -0.929145 -0.343044 -17.763498 -2.188586 -1.082733 37.536968 0.000000 0.000000 -21.873005 0.000000 0.000000 -2.823510 11.459868 -0.317930 -56.020535 -13.048765 -0.007812 -87.843391 -35.752586 -15.800856 -16.372589 19.991964 -14.094722 1.845673 -12.448556 -0.859886 55.782166 13.893594 -0.121168 84.658257 35.261288 -14.070679 19.655018 -17.161951 -13.592002 -147.597763 58.958664 8.139934 151.937820 31.995871 53.669556 -11.101233 -43.786568 -7.038934 -147.614273 -58.986042 -8.135234 151.929489 -32.034363 -53.694500 -11.109713 43.792557 7.050207 
-0.309380 36.276875 0.713679 -2.399402 0.000000 0.000000 16.218554 -0.929129 -0.343047 -19.092981 -2.188643 -1.082686 37.912060 0.000000 0.000000 -21.754431 0.000000 0.000000 -2.618058 11.483033 0.094653 -56.212414 -12.964462 0.069642 -88.155365 -35.852261 -15.982646 -16.508585 20.219334 -14.089348 1.615518 -12.489326 -0.470758 55.991520 13.833083 -0.037128 84.922485 35.367794 -14.223010 19.845469 -17.368805 -13.570950 -147.717270 58.492306 8.341242 151.937820 31.995871 53.669556 -11.041727 -43.489403 -7.313756 -147.733353 -58.520206 -8.336197 151.929489 -32.034363 -53.694504 -11.050481 43.496235 7.325306 
-0.309380 36.232719 0.696708 -2.049862 0.000000 0.000000 16.543276 -0.929112 -0.343050 -20.416567 -2.188699 -1.082637 38.286587 0.000000 0.000000 -21.635853 0.000000 0.000000 -2.412887 11.507631 0.506936 -56.404083 -12.879914 0.146771 -88.468086 -35.951138 -16.165308 -16.644732 20.446676 -14.084538 1.385751 -12.531591 -0.081970 56.200695 13.772276 0.046653 85.187401 35.473740 -14.376122 20.036022 -17.575687 -13.550604 -147.838242 58.026569 8.541613 151.937820 31.995871 53.669556 -10.980586 -43.192570 -7.587533 -147.853851 -58.054943 -8.536210 151.929489 -32.034367 -53.694508 -10.989617 43.200249 7.599361 
